<?xml version="1.0" encoding="iso-8859-1"?>
<!-- Generator: Adobe Illustrator 18.1.1, SVG Export Plug-In . SVG Version: 6.00 Build 0)  -->
<svg xmlns="http://www.w3.org/2000/svg" xmlns:xlink="http://www.w3.org/1999/xlink" version="1.1" id="Capa_1" x="0px" y="0px" viewBox="0 0 31.763 31.763" style="enable-background:new 0 0 31.763 31.763;" xml:space="preserve" width="512px" height="512px">
<g id="cart">
	<path d="M6.302,22.16c-1.129,0-2.127-0.72-2.483-1.791L0.083,9.153c-0.165-0.494-0.082-1.042,0.223-1.465   c0.305-0.423,0.798-0.676,1.319-0.676l24.239,0.005c0.487,0.001,0.882,0.396,0.882,0.883s-0.395,0.883-0.882,0.883l0,0L1.818,8.778   l3.675,11.034c0.116,0.35,0.441,0.583,0.809,0.583l17.891-0.002c0.487,0,0.882,0.396,0.882,0.883s-0.395,0.882-0.882,0.883   L6.302,22.16z" fill="#006DF0"/>
	<path d="M23.563,18.816L3.935,18.809c-0.487-0.001-0.882-0.396-0.882-0.883s0.395-0.883,0.882-0.883c0,0,0,0,0,0l19.51,0.007   l1.969-11.816c0.15-0.907,0.928-1.566,1.849-1.566l3.618,0.002c0.487,0.001,0.882,0.396,0.882,0.883   c0,0.487-0.395,0.883-0.882,0.883h0l-3.618-0.002c-0.053,0-0.099,0.038-0.107,0.09l-1.989,11.934   C25.036,18.243,24.362,18.816,23.563,18.816z" fill="#006DF0"/>
	<rect x="1.708" y="10.358" width="23.599" height="1.766" fill="#006DF0"/>
	<rect x="2.823" y="13.703" width="21.928" height="1.766" fill="#006DF0"/>
	<circle cx="9.838" cy="25.596" r="2.5" fill="#006DF0"/>
	<circle cx="19.873" cy="25.596" r="2.5" fill="#006DF0"/>
</g>
<g>
</g>
<g>
</g>
<g>
</g>
<g>
</g>
<g>
</g>
<g>
</g>
<g>
</g>
<g>
</g>
<g>
</g>
<g>
</g>
<g>
</g>
<g>
</g>
<g>
</g>
<g>
</g>
<g>
</g>
</svg>
