<!-- Generated by IcoMoon.io -->
<svg version="1.1" xmlns="http://www.w3.org/2000/svg" width="32" height="32" viewBox="0 0 32 32">
<title>plus-circle</title>
<path d="M16 1.333c-8.083 0-14.667 6.583-14.667 14.667s6.583 14.667 14.667 14.667 14.667-6.583 14.667-14.667-6.583-14.667-14.667-14.667zM16 28c-6.617 0-12-5.383-12-12s5.383-12 12-12c6.617 0 12 5.383 12 12s-5.383 12-12 12z"></path>
<path d="M21.333 14.667h-4v-4c0-0.733-0.6-1.333-1.333-1.333s-1.333 0.6-1.333 1.333v4h-4c-0.733 0-1.333 0.6-1.333 1.333s0.6 1.333 1.333 1.333h4v4c0 0.733 0.6 1.333 1.333 1.333s1.333-0.6 1.333-1.333v-4h4c0.733 0 1.333-0.6 1.333-1.333s-0.6-1.333-1.333-1.333z"></path>
</svg>
