<!-- Generated by IcoMoon.io -->
<svg version="1.1" xmlns="http://www.w3.org/2000/svg" width="32" height="32" viewBox="0 0 32 32">
<title>trash</title>
<path d="M24 9.333h-1.333v-1.333c0-1.472-1.195-2.667-2.667-2.667h-9.333c-1.472 0-2.667 1.195-2.667 2.667v1.333h-1.333c-0.736 0-1.333 0.597-1.333 1.333s0.597 1.333 1.333 1.333v10.667c0 2.941 2.392 5.333 5.333 5.333h6.667c2.941 0 5.333-2.392 5.333-5.333v-10.667c0.736 0 1.333-0.597 1.333-1.333s-0.597-1.333-1.333-1.333zM10.667 8h9.333v1.333h-9.333v-1.333zM21.333 22.667c0 1.472-1.195 2.667-2.667 2.667h-6.667c-1.472 0-2.667-1.195-2.667-2.667v-10.667h12v10.667z"></path>
<path d="M11.333 14c-0.367 0-0.667 0.3-0.667 0.667v8c0 0.367 0.3 0.667 0.667 0.667s0.667-0.3 0.667-0.667v-8c0-0.367-0.3-0.667-0.667-0.667z"></path>
<path d="M14 14c-0.367 0-0.667 0.3-0.667 0.667v8c0 0.367 0.3 0.667 0.667 0.667s0.667-0.3 0.667-0.667v-8c0-0.367-0.3-0.667-0.667-0.667z"></path>
<path d="M16.667 14c-0.367 0-0.667 0.3-0.667 0.667v8c0 0.367 0.3 0.667 0.667 0.667s0.667-0.3 0.667-0.667v-8c0-0.367-0.3-0.667-0.667-0.667z"></path>
<path d="M19.333 14c-0.367 0-0.667 0.3-0.667 0.667v8c0 0.367 0.3 0.667 0.667 0.667s0.667-0.3 0.667-0.667v-8c0-0.367-0.3-0.667-0.667-0.667z"></path>
</svg>
